<svg xmlns="http://www.w3.org/2000/svg" xmlns:xlink="http://www.w3.org/1999/xlink" aria-hidden="true" role="img" class="iconify iconify--logos" width="35.93" height="32" preserveAspectRatio="xMidYMid meet" viewBox="0 0 256 228"><path fill="#00D8FF" d="M210.483 73.824a171.49 171.49 0 0 0-8.24-2.597c.465-1.9.893-3.777 1.273-5.621c6.238-30.281 2.16-54.676-11.769-62.708c-13.355-7.7-35.196.329-57.254 19.526a171.23 171.23 0 0 0-6.375 5.848a155.866 155.866 0 0 0-4.241-3.917C100.759 3.829 77.587-4.822 63.673 3.233C50.33 10.957 46.379 33.89 51.995 62.588a170.974 170.974 0 0 0 1.892 8.48c-3.28.932-6.445 1.924-9.474 2.98C17.309 83.498 0 98.307 0 113.668c0 15.865 18.582 31.778 46.812 41.427a145.52 145.52 0 0 0 6.921 2.165a167.467 167.467 0 0 0-2.01 9.138c-5.354 28.2-1.173 50.591 12.134 58.266c13.744 7.926 36.812-.22 59.273-19.855a145.567 145.567 0 0 0 5.342-4.923a168.064 168.064 0 0 0 6.92 6.314c21.758 18.722 43.246 26.282 56.54 18.586c13.731-7.949 18.194-32.003 12.4-61.268a145.016 145.016 0 0 0-1.535-6.842c1.62-.48 3.21-.974 4.76-1.488c29.348-9.723 48.443-25.443 48.443-41.52c0-15.417-17.868-30.326-45.517-39.844Zm-6.365 70.984c-1.4.463-2.836.91-4.3 1.345c-3.24-10.257-7.612-21.163-12.963-32.432c5.106-11 9.31-21.767 12.459-31.957c2.619.758 5.16 1.557 7.61 2.4c23.69 8.156 38.14 20.213 38.14 29.504c0 9.896-15.606 22.743-40.946 31.14Zm-10.514 20.834c2.562 12.94 2.927 24.64 1.23 33.787c-1.524 8.219-4.59 13.698-8.382 15.893c-8.067 4.67-25.32-1.4-43.927-17.412a156.8 156.8 0 0 1-6.437-5.87c7.214-7.889 14.423-17.06 21.459-27.246c12.376-1.098 24.068-2.894 34.671-5.345a134.17 134.17 0 0 1 1.386 6.193ZM87.276 214.515c-7.882-4.553-10.694-15.831-8.522-30.877a144.318 144.318 0 0 1 1.869-8.499c10.486 2.32 22.093 3.988 34.513 4.994c7.084 9.967 14.501 19.128 21.976 27.15a134.024 134.024 0 0 1-4.885 4.477c-9.902 8.682-19.803 15.512-26.972 17.982a19.765 19.765 0 0 1-2.914.578c-6.345.327-12.046-2.092-15.065-15.805Zm-9.414-55.489c-12.483-4.267-22.792-9.812-29.858-15.863c-6.35-5.437-9.555-10.836-9.555-15.553c0-9.322 14.409-21.212 37.433-29.293c2.813-.98 5.757-1.905 8.812-2.773c3.204 10.42 7.406 21.315 12.477 32.332c-5.137 11.18-9.399 22.249-12.634 32.792a134.257 134.257 0 0 1-6.675-1.642Zm8.082-39.307a347.8 347.8 0 0 0-7.785-12.803c-8.168-13.499-15.811-25.074-21.707-33.593c-8.067-11.55-12.821-18.842-11.677-23.293c1.693-6.568 11.374-9.962 25.092-8.419a156.04 156.04 0 0 1 6.669 1.63c1.366 12.177 3.566 25.26 6.531 38.793c5.651 27.08 13.311 51.421 21.545 71.415a381.817 381.817 0 0 0-5.669 1.274Zm52.889-57.817c5.044 5.465 10.096 11.566 15.065 18.186a322.04 322.04 0 0 1 12.442-19.815c6.372-10.422 12.637-20.237 18.48-29.101c9.492-14.4 16.836-24.83 20.33-30.075c2.065-3.183 3.532-5.446 4.237-6.636c1.154-1.97 1.361-3.342.976-4.573c-1.13-3.593-5.712-5.798-12.385-5.417a145.24 145.24 0 0 0-6.716.806c-2.754 12.51-6.359 25.921-10.651 39.64c-4.275 13.658-9.096 27.222-14.322 40.287a310.28 310.28 0 0 1-6.45-9.304Zm64.6 55.818c-1.883.622-3.8 1.214-5.742 1.774a321.024 321.024 0 0 0-15.742-31.33c6.34-13.332 11.555-26.646 15.522-39.47c3.973 12.893 9.13 26.302 15.345 39.787a135.36 135.36 0 0 1-9.383 29.239Zm-20.033 42.03c-4.754 8.933-9.843 17.264-15.158 24.834a144.318 144.318 0 0 1-8.161 10.113c-7.378-6.785-14.993-15.05-22.596-24.548a381.817 381.817 0 0 1 5.684-1.258c13.909-3.081 26.812-6.908 38.231-11.141Zm-47.906 28.423c-1.85-.1-3.676-.218-5.474-.354c-6.345-.49-12.354-1.078-17.884-1.75c-1.366-12.177-3.566-25.26-6.531-38.793c-5.651-27.08-13.311-51.421-21.545-71.415a321.024 321.024 0 0 1 15.742 31.33c1.25 2.585 2.517 5.17 3.8 7.749c8.164 16.967 17.379 32.064 27.176 44.967c7.119 9.287 14.431 17.357 21.516 23.856Zm113.589-57.817c4.754-8.933 9.843-17.264 15.158-24.834a145.567 145.567 0 0 1 8.161-10.113c7.378 6.785 14.993 15.05 22.596 24.548a381.817 381.817 0 0 0-5.684 1.258c-13.909 3.081-26.812 6.908-38.231 11.141Zm-15.758 29.293c-5.044-5.465-10.096-11.566-15.065-18.186a322.04 322.04 0 0 0-12.442 19.815c-6.372 10.422-12.637 20.237-18.48 29.101c-9.492 14.4-16.836 24.83-20.33 30.075c-2.065 3.183-3.532 5.446-4.237 6.636c-1.154 1.97-1.361 3.342-.976 4.573c1.13 3.593 5.712 5.798 12.385 5.417a145.24 145.24 0 0 1 6.716-.806c2.754-12.51 6.359-25.921 10.651-39.64c4.275-13.658 9.096-27.222 14.322-40.287a310.28 310.28 0 0 0 6.45 9.304ZM128.02 222.089c-3.234 0-6.4-.05-9.486-.149c-6.345-.49-12.354-1.078-17.884-1.75c-1.366-12.177-3.566-25.26-6.531-38.793c-5.651-27.08-13.311-51.421-21.545-71.415c8.234-2.026 16.927-4.32 25.99-6.848c13.909 3.081 26.812 6.908 38.231 11.141c6.34 13.332 11.555 26.646 15.522 39.47c3.973-12.893 9.13-26.302 15.345-39.787c8.234 2.026 16.927 4.32 25.99 6.848c-8.234 20.094-15.894 44.435-21.545 71.415c-2.965 13.533-5.165 26.616-6.531 38.793c-5.53.672-11.539 1.26-17.884 1.75a223.64 223.64 0 0 1-9.22.149Zm-88.473-32.436c-1.85-.1-3.676-.218-5.474-.354c-6.345-.49-12.354-1.078-17.884-1.75c-1.366-12.177-3.566-25.26-6.531-38.793c-5.651-27.08-13.311-51.421-21.545-71.415c8.234-2.026 16.927-4.32 25.99-6.848c13.909 3.081 26.812 6.908 38.231 11.141c6.34 13.332 11.555 26.646 15.522 39.47c3.973-12.893 9.13-26.302 15.345-39.787c8.234 2.026 16.927 4.32 25.99 6.848c-8.234 20.094-15.894 44.435-21.545 71.415c-2.965 13.533-5.165 26.616-6.531 38.793c-5.53.672-11.539 1.26-17.884 1.75a223.64 223.64 0 0 1-9.22.149Zm-88.473-32.436c-1.85-.1-3.676-.218-5.474-.354c-6.345-.49-12.354-1.078-17.884-1.75c-1.366-12.177-3.566-25.26-6.531-38.793c-5.651-27.08-13.311-51.421-21.545-71.415c8.234-2.026 16.927-4.32 25.99-6.848c13.909 3.081 26.812 6.908 38.231 11.141c6.34 13.332 11.555 26.646 15.522 39.47c3.973-12.893 9.13-26.302 15.345-39.787c8.234 2.026 16.927 4.32 25.99 6.848c-8.234 20.094-15.894 44.435-21.545 71.415c-2.965 13.533-5.165 26.616-6.531 38.793c-5.53.672-11.539 1.26-17.884 1.75a223.64 223.64 0 0 1-9.22.149Z"></path></svg>
